<svg width="303" height="49" viewBox="0 0 303 49" fill="none" xmlns="http://www.w3.org/2000/svg">
    <mask id="mask0_46_443" style="mask-type:luminance" maskUnits="userSpaceOnUse" x="0" y="0" width="19" height="45">
    <path d="M0.0612793 0.966431H18.0982V44.9304H0.0612793V0.966431Z" fill="white"/>
    </mask>
    <g mask="url(#mask0_46_443)">
    <path fill-rule="evenodd" clip-rule="evenodd" d="M28.8515 3.24439L18.4509 41.1444C18.0566 42.5814 18.8604 44.0816 20.2368 44.4922C21.617 44.8989 23.0578 44.0658 23.4521 42.6328L33.8527 4.73275C34.2432 3.29571 33.4432 1.7955 32.0668 1.38492C30.6866 0.978283 29.2458 1.81129 28.8515 3.24439ZM6.42755 22.9405L14.9891 31.8549C16.0053 32.909 16.0053 34.6264 14.9891 35.6805C13.9768 36.7346 12.3274 36.7346 11.315 35.6805L0.914469 24.8513C-0.101698 23.7972 -0.101698 22.0799 0.914469 21.0258L11.315 10.1967C12.3274 9.14258 13.9768 9.14258 14.9891 10.1967C16.0053 11.2547 16.0053 12.9681 14.9891 14.0261L6.42755 22.9405ZM45.8723 22.9405L37.3107 14.0261C36.2983 12.9681 36.2983 11.2547 37.3107 10.1967C38.3268 9.14258 39.9762 9.14258 40.9886 10.1967L51.3891 21.0258C52.4053 22.0799 52.4053 23.7972 51.3891 24.8513L40.9886 35.6805C39.9762 36.7346 38.3268 36.7346 37.3107 35.6805C36.2983 34.6264 36.2983 32.909 37.3107 31.8549L45.8723 22.9405Z" fill="#E88D67"/>
    </g>
    <path d="M54.6923 31.2772H50.2029L48.2009 17.4279L42.1191 31.2456H41.0271L34.9453 17.4279L32.9433 31.2772H28.4236L31.6238 10.0532H36.0524L41.5579 23.0656L47.0938 10.0532H51.5224L54.6923 31.2772Z" fill="#E88D67"/>
    <path d="M70.6475 14.8696H73.8173V31.2456H70.4807L70.1318 29.7927C69.4417 30.4047 68.6644 30.8824 67.7962 31.2298C66.9354 31.5654 66.0141 31.7351 65.0358 31.7351C63.4585 31.7351 62.048 31.3561 60.8043 30.5981C59.5607 29.8401 58.5786 28.8097 57.862 27.5029C57.1416 26.2001 56.7852 24.7197 56.7852 23.0655C56.7852 21.4232 57.1416 19.9506 57.862 18.6438C58.5786 17.341 59.5607 16.3145 60.8043 15.5644C62.048 14.8183 63.4585 14.4432 65.0358 14.4432C66.0368 14.4432 66.9696 14.6248 67.8417 14.9802C68.7213 15.3394 69.4986 15.829 70.1773 16.4488L70.6475 14.8696ZM65.3847 27.5503C66.1923 27.5503 66.9203 27.3608 67.5687 26.9818C68.2246 26.5949 68.7365 26.062 69.1005 25.3869C69.4721 24.7039 69.6617 23.9301 69.6617 23.0655C69.6617 22.2127 69.4721 21.4508 69.1005 20.7757C68.7365 20.0927 68.2246 19.5558 67.5687 19.1649C66.9203 18.778 66.1923 18.5807 65.3847 18.5807C64.5429 18.5807 63.7997 18.778 63.1552 19.1649C62.5182 19.5558 62.0101 20.0927 61.6385 20.7757C61.2745 21.4508 61.0925 22.2127 61.0925 23.0655C61.0925 23.9301 61.2745 24.6999 61.6385 25.3711C62.0101 26.0343 62.5182 26.5673 63.1552 26.966C63.7997 27.3569 64.5429 27.5503 65.3847 27.5503Z" fill="#E88D67"/>
    <path d="M85.9324 14.8064H87.3277V18.9912H85.5077C84.2944 18.9912 83.4299 19.2873 82.9142 19.8755C82.4061 20.4677 82.1559 21.4231 82.1559 22.7496V31.2771H77.894V14.9011H80.6392L81.3975 16.9067C82.4592 15.5091 83.9683 14.8064 85.9324 14.8064Z" fill="#E88D67"/>
    <path d="M97.0562 31.7351C95.4865 31.7351 94.0722 31.3482 92.8096 30.5823C91.5432 29.8164 90.5497 28.7742 89.8217 27.4556C89.0937 26.1409 88.7297 24.6683 88.7297 23.0339C88.7297 21.3916 89.0937 19.9229 89.8217 18.628C90.5497 17.3331 91.5432 16.3145 92.8096 15.5644C94.0722 14.8183 95.4979 14.4432 97.0866 14.4432C98.4516 14.4432 99.6877 14.7235 100.802 15.2802C101.913 15.8408 102.842 16.6225 103.593 17.6332C104.34 18.6438 104.841 19.8203 105.095 21.1547H100.878C100.522 20.3454 100.014 19.7177 99.3464 19.2755C98.6791 18.8254 97.9132 18.5964 97.0562 18.5964C96.2979 18.5964 95.6078 18.7978 94.9936 19.1965C94.3869 19.5874 93.9054 20.1203 93.5527 20.7915C93.2077 21.4547 93.0371 22.2127 93.0371 23.0655C93.0371 23.9103 93.2077 24.6723 93.5527 25.3553C93.9054 26.0304 94.3869 26.5712 94.9936 26.9818C95.6078 27.3845 96.2979 27.5819 97.0562 27.5819C97.9359 27.5819 98.698 27.345 99.3464 26.8713C99.991 26.3975 100.503 25.7145 100.878 24.8184H105.155C104.901 26.2001 104.397 27.4082 103.639 28.4504C102.88 29.4848 101.94 30.2902 100.818 30.8666C99.6952 31.443 98.4402 31.7351 97.0562 31.7351Z" fill="#E88D67"/>
    <path d="M115.438 31.7351C113.808 31.7351 112.352 31.3561 111.07 30.5981C109.785 29.8401 108.772 28.8097 108.037 27.5029C107.297 26.2001 106.93 24.7315 106.93 23.0971C106.93 21.435 107.297 19.9506 108.037 18.6438C108.772 17.341 109.785 16.3145 111.07 15.5644C112.352 14.8183 113.808 14.4432 115.438 14.4432C117.046 14.4432 118.49 14.8183 119.776 15.5644C121.057 16.3145 122.07 17.341 122.809 18.6438C123.545 19.9506 123.916 21.435 123.916 23.0971C123.916 24.7315 123.545 26.2001 122.809 27.5029C122.07 28.8097 121.057 29.8401 119.776 30.5981C118.49 31.3561 117.046 31.7351 115.438 31.7351ZM115.438 27.5819C116.659 27.5819 117.656 27.1674 118.426 26.3344C119.203 25.5053 119.594 24.4236 119.594 23.0971C119.594 21.7627 119.203 20.677 118.426 19.844C117.656 19.0149 116.659 18.5964 115.438 18.5964C114.195 18.5964 113.182 19.0149 112.405 19.844C111.624 20.677 111.237 21.7627 111.237 23.0971C111.237 24.4236 111.624 25.5053 112.405 26.3344C113.182 27.1674 114.195 27.5819 115.438 27.5819Z" fill="#E88D67"/>
    <path d="M132.558 31.7351C131.231 31.7351 130.074 31.4903 129.085 31.0087C128.103 30.5271 127.333 29.848 126.779 28.9716C126.222 28.0872 125.945 27.0568 125.945 25.8764H130.086C130.105 26.6028 130.359 27.1516 130.844 27.5187C131.329 27.878 131.951 28.0557 132.709 28.0557C133.305 28.0557 133.824 27.9254 134.272 27.6609C134.715 27.3885 134.939 26.9779 134.939 26.4291C134.939 25.8606 134.639 25.4619 134.044 25.2289C133.456 25 132.747 24.8105 131.921 24.6604C131.291 24.5657 130.647 24.4315 129.979 24.2499C129.312 24.0604 128.694 23.7998 128.129 23.4603C127.572 23.1129 127.113 22.6391 126.749 22.039C126.385 21.431 126.203 20.6415 126.203 19.6703C126.203 18.6399 126.468 17.7279 127.007 16.9383C127.541 16.1487 128.281 15.5408 129.221 15.1065C130.161 14.6643 131.272 14.4432 132.558 14.4432C133.82 14.4432 134.924 14.6762 135.864 15.1381C136.804 15.5921 137.536 16.2277 138.063 17.0489C138.586 17.8621 138.852 18.8136 138.852 19.9072H134.802C134.802 19.2676 134.59 18.782 134.165 18.4543C133.748 18.1306 133.172 17.9648 132.436 17.9648C131.777 17.9648 131.261 18.1148 130.889 18.4069C130.525 18.703 130.343 19.082 130.343 19.5439C130.343 20.0927 130.632 20.4678 131.208 20.6652C131.792 20.8665 132.497 21.0402 133.316 21.1863C133.953 21.3047 134.609 21.4508 135.288 21.6284C135.974 21.7982 136.607 22.0548 137.184 22.4022C137.767 22.7418 138.238 23.2155 138.594 23.8235C138.958 24.4236 139.14 25.221 139.14 26.208C139.14 27.3253 138.867 28.3004 138.321 29.1295C137.775 29.9507 137.005 30.5942 136.016 31.0561C135.034 31.5061 133.881 31.7351 132.558 31.7351Z" fill="#E88D67"/>
    <path d="M156.081 31.2772L154.656 27.2503H146.541L145.131 31.2772H140.475L148.452 10.0532H152.623L160.859 31.2772H156.081ZM150.591 15.6593L147.937 23.2393H153.26L150.591 15.6593Z" fill="#E88D67"/>
    <path d="M172.136 14.5063C173.914 14.5063 175.325 15.1301 176.368 16.3698C177.406 17.6134 177.93 19.2754 177.93 21.3599V31.2771H173.683V22.0548C173.683 19.615 172.765 18.3911 170.938 18.3911C169.853 18.3911 168.997 18.778 168.36 19.5439C167.73 20.3137 167.419 21.356 167.419 22.6706V31.2771H163.157V14.9011H166.069L166.919 16.9383C167.503 16.1921 168.253 15.6039 169.163 15.1696C170.073 14.7274 171.063 14.5063 172.136 14.5063Z" fill="#E88D67"/>
    <path d="M189.513 27.3293H191.439V31.2772H188.436C186.707 31.2772 185.342 30.7561 184.341 29.7138C183.348 28.6716 182.855 27.2424 182.855 25.4185V18.4544H179.988V17.5069L186.222 10.6217H187.01V14.9012H191.348V18.4544H187.101V24.85C187.101 25.6396 187.306 26.2515 187.723 26.6818C188.136 27.1161 188.732 27.3293 189.513 27.3293Z" fill="#E88D67"/>
    <path d="M201.837 31.7351C200.207 31.7351 198.751 31.3561 197.469 30.5981C196.184 29.8401 195.171 28.8097 194.436 27.5029C193.697 26.2001 193.329 24.7315 193.329 23.0971C193.329 21.435 193.697 19.9506 194.436 18.6438C195.171 17.341 196.184 16.3145 197.469 15.5644C198.751 14.8183 200.207 14.4432 201.837 14.4432C203.445 14.4432 204.89 14.8183 206.175 15.5644C207.456 16.3145 208.469 17.341 209.208 18.6438C209.944 19.9506 210.315 21.435 210.315 23.0971C210.315 24.7315 209.944 26.2001 209.208 27.5029C208.469 28.8097 207.456 29.8401 206.175 30.5981C204.89 31.3561 203.445 31.7351 201.837 31.7351ZM201.837 27.5819C203.058 27.5819 204.055 27.1674 204.825 26.3344C205.602 25.5053 205.993 24.4236 205.993 23.0971C205.993 21.7627 205.602 20.677 204.825 19.844C204.055 19.0149 203.058 18.5964 201.837 18.5964C200.594 18.5964 199.581 19.0149 198.804 19.844C198.023 20.677 197.636 21.7627 197.636 23.0971C197.636 24.4236 198.023 25.5053 198.804 26.3344C199.581 27.1674 200.594 27.5819 201.837 27.5819Z" fill="#E88D67"/>
    <path d="M222.339 14.5063C224.117 14.5063 225.528 15.1301 226.57 16.3698C227.609 17.6134 228.133 19.2754 228.133 21.3599V31.2771H223.886V22.0548C223.886 19.615 222.968 18.3911 221.141 18.3911C220.056 18.3911 219.199 18.778 218.562 19.5439C217.933 20.3137 217.622 21.356 217.622 22.6706V31.2771H213.36V14.9011H216.272L217.122 16.9383C217.705 16.1921 218.456 15.6039 219.366 15.1696C220.276 14.7274 221.266 14.5063 222.339 14.5063Z" fill="#E88D67"/>
    <path d="M232.026 12.722V8.60034H236.288V12.722H232.026ZM232.026 31.2772V14.9012H236.288V31.2772H232.026Z" fill="#E88D67"/>
    <path d="M247.847 31.7351C246.216 31.7351 244.76 31.3561 243.479 30.5981C242.193 29.8401 241.181 28.8097 240.445 27.5029C239.706 26.2001 239.338 24.7315 239.338 23.0971C239.338 21.435 239.706 19.9506 240.445 18.6438C241.181 17.341 242.193 16.3145 243.479 15.5644C244.76 14.8183 246.216 14.4432 247.847 14.4432C249.454 14.4432 250.899 14.8183 252.184 15.5644C253.466 16.3145 254.478 17.341 255.218 18.6438C255.953 19.9506 256.325 21.435 256.325 23.0971C256.325 24.7315 255.953 26.2001 255.218 27.5029C254.478 28.8097 253.466 29.8401 252.184 30.5981C250.899 31.3561 249.454 31.7351 247.847 31.7351ZM247.847 27.5819C249.068 27.5819 250.065 27.1674 250.835 26.3344C251.612 25.5053 252.002 24.4236 252.002 23.0971C252.002 21.7627 251.612 20.677 250.835 19.844C250.065 19.0149 249.068 18.5964 247.847 18.5964C246.603 18.5964 245.591 19.0149 244.813 19.844C244.032 20.677 243.646 21.7627 243.646 23.0971C243.646 24.4236 244.032 25.5053 244.813 26.3344C245.591 27.1674 246.603 27.5819 247.847 27.5819Z" fill="#E88D67"/>
    <mask id="mask1_46_443" style="mask-type:luminance" maskUnits="userSpaceOnUse" x="266" y="1" width="37" height="44">
    <path d="M266.832 1.2981H302.902V44.5041H266.832V1.2981Z" fill="white"/>
    </mask>
    <g mask="url(#mask1_46_443)">
    <path fill-rule="evenodd" clip-rule="evenodd" d="M279.439 2.9168L269.038 40.8129C268.648 42.2499 269.448 43.7501 270.824 44.1646C272.204 44.5713 273.645 43.7383 274.04 42.3052L284.44 4.40517C284.835 2.96813 284.031 1.46792 282.654 1.05734C281.274 0.646752 279.833 1.48371 279.439 2.9168ZM257.019 22.609L265.577 31.5234C266.593 32.5815 266.593 34.2948 265.577 35.3529C264.564 36.407 262.915 36.407 261.903 35.3529L251.502 24.5238C250.486 23.4697 250.486 21.7523 251.502 20.6943L261.903 9.86909C262.915 8.81104 264.564 8.81104 265.577 9.86909C266.593 10.9232 266.593 12.6405 265.577 13.6946L257.019 22.609ZM296.464 22.609L287.902 13.6946C286.886 12.6405 286.886 10.9232 287.902 9.86909C288.914 8.81104 290.564 8.81104 291.576 9.86909L301.977 20.6943C302.993 21.7523 302.993 23.4697 301.977 24.5238L291.576 35.3529C290.564 36.407 288.914 36.407 287.902 35.3529C286.886 34.2948 286.886 32.5815 287.902 31.5234L296.464 22.609Z" fill="#E88D67"/>
    </g>
    <path d="M37.8761 39.9866C38.4107 39.9866 38.8847 40.1287 39.3017 40.4129C39.7264 40.6893 40.0525 41.0683 40.2876 41.5499C40.5302 42.0355 40.6516 42.6001 40.6516 43.2397V48.3719H38.5282V43.6029C38.5282 42.4896 38.1263 41.9289 37.3301 41.9289C36.8637 41.9289 36.4959 42.1106 36.2229 42.4659C35.9575 42.8133 35.8286 43.3107 35.8286 43.9503V48.3719H33.7507V43.6029C33.7507 42.4896 33.364 41.9289 32.5981 41.9289C32.1127 41.9289 31.7336 42.1106 31.4606 42.4659C31.1876 42.8133 31.0511 43.3107 31.0511 43.9503V48.3719H28.9277V40.1919H30.4141L30.8084 41.2025C31.089 40.8354 31.434 40.5393 31.8397 40.3182C32.253 40.0971 32.6967 39.9866 33.1744 39.9866C33.6673 39.9866 34.1147 40.105 34.5091 40.334C34.9034 40.5669 35.2105 40.8946 35.4342 41.3131C35.7072 40.9025 36.0561 40.5827 36.4807 40.3498C36.913 40.109 37.3794 39.9866 37.8761 39.9866Z" fill="#E88D67"/>
    <path d="M54.8399 40.176H56.4172V48.3561H54.7489L54.5669 47.6297C54.2332 47.9376 53.8464 48.1745 53.4142 48.3403C52.9781 48.5061 52.5118 48.593 52.0189 48.593C51.2378 48.593 50.5363 48.4035 49.9107 48.0245C49.2926 47.6455 48.8035 47.1362 48.4395 46.4927C48.0831 45.8413 47.9087 45.0991 47.9087 44.2661C47.9087 43.4449 48.0831 42.7106 48.4395 42.0552C48.8035 41.4038 49.2926 40.8946 49.9107 40.5235C50.5363 40.1445 51.2378 39.955 52.0189 39.955C52.5231 39.955 52.9933 40.0458 53.4294 40.2234C53.873 40.405 54.2635 40.6498 54.5972 40.9656L54.8399 40.176ZM52.2009 46.5085C52.6028 46.5085 52.9668 46.4137 53.2929 46.2242C53.6151 46.0269 53.8692 45.7584 54.0512 45.4189C54.2408 45.0833 54.3394 44.7004 54.3394 44.2661C54.3394 43.8476 54.2408 43.4686 54.0512 43.1291C53.8692 42.7817 53.6151 42.5132 53.2929 42.3237C52.9668 42.1263 52.6028 42.0237 52.2009 42.0237C51.7838 42.0237 51.416 42.1263 51.0937 42.3237C50.7676 42.5132 50.5174 42.7817 50.3354 43.1291C50.1534 43.4686 50.0624 43.8476 50.0624 44.2661C50.0624 44.7004 50.1534 45.0833 50.3354 45.4189C50.5174 45.7466 50.7676 46.0111 51.0937 46.2085C51.416 46.4098 51.7838 46.5085 52.2009 46.5085Z" fill="#E88D67"/>
    <path d="M68.2987 40.1445H68.9964V42.229H68.0864C67.4797 42.229 67.0437 42.3791 66.782 42.6712C66.528 42.9673 66.4029 43.445 66.4029 44.1082V48.372H64.2795V40.1919H65.6445L66.0237 41.1868C66.5583 40.4919 67.3167 40.1445 68.2987 40.1445Z" fill="#E88D67"/>
    <path d="M79.6845 48.593C78.8958 48.593 78.1868 48.4035 77.5611 48.0245C76.9317 47.6376 76.4388 47.1165 76.0748 46.4611C75.7108 45.8097 75.5288 45.0715 75.5288 44.2503C75.5288 43.4291 75.7108 42.6988 76.0748 42.0552C76.4388 41.4038 76.9317 40.8946 77.5611 40.5235C78.1868 40.1445 78.8996 39.955 79.6996 39.955C80.3746 39.955 80.9926 40.0971 81.55 40.3813C82.1149 40.6577 82.5851 41.0446 82.9605 41.5499C83.3321 42.0552 83.5823 42.6395 83.7036 43.3028H81.5955C81.4211 42.9041 81.1632 42.5922 80.822 42.3711C80.4883 42.15 80.1091 42.0395 79.6845 42.0395C79.3091 42.0395 78.9641 42.1421 78.6531 42.3395C78.3498 42.529 78.1109 42.7935 77.9403 43.1291C77.7659 43.4686 77.6825 43.8476 77.6825 44.2661C77.6825 44.6885 77.7659 45.0675 77.9403 45.4031C78.1109 45.7426 78.3498 46.015 78.6531 46.2242C78.9641 46.4256 79.3091 46.5243 79.6845 46.5243C80.1167 46.5243 80.4959 46.4098 80.822 46.1769C81.1556 45.9361 81.4135 45.5926 81.5955 45.1504H83.734C83.6126 45.8374 83.3586 46.4414 82.9756 46.9665C82.6003 47.4836 82.1301 47.8824 81.5651 48.1666C80.9964 48.4509 80.3708 48.593 79.6845 48.593Z" fill="#E88D67"/>
    <path d="M97.384 40.176H98.9614V48.3561H97.293L97.111 47.6297C96.7774 47.9376 96.3906 48.1745 95.9584 48.3403C95.5223 48.5061 95.056 48.593 94.563 48.593C93.782 48.593 93.0805 48.4035 92.4549 48.0245C91.8368 47.6455 91.3477 47.1362 90.9837 46.4927C90.6273 45.8413 90.4529 45.0991 90.4529 44.2661C90.4529 43.4449 90.6273 42.7106 90.9837 42.0552C91.3477 41.4038 91.8368 40.8946 92.4549 40.5235C93.0805 40.1445 93.782 39.955 94.563 39.955C95.0673 39.955 95.5375 40.0458 95.9735 40.2234C96.4172 40.405 96.8077 40.6498 97.1414 40.9656L97.384 40.176ZM94.745 46.5085C95.147 46.5085 95.511 46.4137 95.837 46.2242C96.1593 46.0269 96.4134 45.7584 96.5954 45.4189C96.785 45.0833 96.8835 44.7004 96.8835 44.2661C96.8835 43.8476 96.785 43.4686 96.5954 43.1291C96.4134 42.7817 96.1593 42.5132 95.837 42.3237C95.511 42.1263 95.147 42.0237 94.745 42.0237C94.328 42.0237 93.9602 42.1263 93.6379 42.3237C93.3118 42.5132 93.0615 42.7817 92.8795 43.1291C92.6975 43.4686 92.6065 43.8476 92.6065 44.2661C92.6065 44.7004 92.6975 45.0833 92.8795 45.4189C93.0615 45.7466 93.3118 46.0111 93.6379 46.2085C93.9602 46.4098 94.328 46.5085 94.745 46.5085Z" fill="#E88D67"/>
    <path d="M111.313 39.9866C112.2 39.9866 112.906 40.2985 113.421 40.9183C113.944 41.5421 114.21 42.3711 114.21 43.4134V48.3719H112.087V43.7608C112.087 42.5409 111.632 41.9289 110.722 41.9289C110.176 41.9289 109.74 42.1263 109.417 42.5132C109.103 42.8922 108.947 43.4094 108.947 44.0608V48.3719H106.824V40.1919H108.28L108.704 41.2025C108.996 40.8235 109.372 40.5314 109.827 40.3182C110.282 40.0971 110.775 39.9866 111.313 39.9866Z" fill="#E88D67"/>
    <path d="M125.833 46.398H126.789V48.3719H125.287C124.426 48.3719 123.744 48.1153 123.24 47.5981C122.743 47.0731 122.496 46.3585 122.496 45.4505V41.9605H121.071V41.4868L124.18 38.0442H124.574V40.1919H126.743V41.9605H124.62V45.1504C124.62 45.5531 124.718 45.8611 124.923 46.0821C125.135 46.2953 125.439 46.398 125.833 46.398Z" fill="#E88D67"/>
    <path d="M141.694 44.2503C141.694 44.4635 141.679 44.6767 141.649 44.8977H135.719C135.798 45.4584 136.011 45.8887 136.356 46.1927C136.697 46.4888 137.122 46.6348 137.63 46.6348C138.001 46.6348 138.331 46.5519 138.616 46.3822C138.908 46.2164 139.135 45.9834 139.298 45.6873H141.543C141.247 46.5835 140.754 47.2941 140.056 47.8192C139.359 48.3364 138.547 48.593 137.63 48.593C136.86 48.593 136.166 48.4035 135.552 48.0245C134.934 47.6455 134.449 47.1362 134.096 46.4927C133.739 45.8413 133.565 45.103 133.565 44.2819C133.565 43.4607 133.739 42.7264 134.096 42.071C134.449 41.4196 134.934 40.9025 135.552 40.5235C136.166 40.1445 136.86 39.955 137.63 39.955C138.437 39.955 139.146 40.1524 139.753 40.5392C140.367 40.9301 140.845 41.4512 141.179 42.1026C141.52 42.7461 141.694 43.4607 141.694 44.2503ZM137.63 41.8342C137.152 41.8342 136.754 41.9723 136.432 42.2447C136.105 42.5211 135.889 42.9001 135.779 43.3817H139.571C139.256 42.3513 138.608 41.8342 137.63 41.8342Z" fill="#E88D67"/>
    </svg>
    