<svg width="30" height="30" viewBox="0 0 30 30" fill="none" xmlns="http://www.w3.org/2000/svg">
    <path d="M6.71652 26.25H0.495536V8.72461H6.71652V26.25ZM3.60268 6.33398C1.61384 6.33398 0 4.89258 0 3.15234C0 2.31629 0.379567 1.51448 1.0552 0.9233C1.73083 0.332121 2.64719 0 3.60268 0C4.55817 0 5.47452 0.332121 6.15016 0.9233C6.82579 1.51448 7.20536 2.31629 7.20536 3.15234C7.20536 4.89258 5.59152 6.33398 3.60268 6.33398ZM29.9933 26.25H23.7857V17.7188C23.7857 15.6855 23.7388 13.0781 20.5513 13.0781C17.317 13.0781 16.8214 15.2871 16.8214 17.5723V26.25H10.6071V8.72461H16.5737V11.1152H16.6607C17.4911 9.73828 19.5201 8.28516 22.5469 8.28516C28.8415 8.28516 30 11.9121 30 16.623V26.25H29.9933Z" fill="#D9D9D9"/>
    </svg>
    