<svg width="20" height="18" viewBox="0 0 20 18" fill="none" xmlns="http://www.w3.org/2000/svg">
    <path d="M4.47768 17.5H0.330357V5.81641H4.47768V17.5ZM2.40179 4.22266C1.07589 4.22266 0 3.26172 0 2.10156C0 1.54419 0.253045 1.00965 0.703467 0.615533C1.15389 0.221414 1.76479 0 2.40179 0C3.03878 0 3.64968 0.221414 4.1001 0.615533C4.55053 1.00965 4.80357 1.54419 4.80357 2.10156C4.80357 3.26172 3.72768 4.22266 2.40179 4.22266ZM19.9955 17.5H15.8571V11.8125C15.8571 10.457 15.8259 8.71875 13.7009 8.71875C11.5446 8.71875 11.2143 10.1914 11.2143 11.7148V17.5H7.07143V5.81641H11.0491V7.41016H11.1071C11.6607 6.49219 13.0134 5.52344 15.0313 5.52344C19.2277 5.52344 20 7.94141 20 11.082V17.5H19.9955Z" fill="#2C3132"/>
    </svg>
    